<svg width="1030" height="812" viewBox="0 0 1030 812" fill="none" xmlns="http://www.w3.org/2000/svg">
<g clip-path="url(#clip0_1_211)">
<rect width="1030" height="812" fill="#222128"/>
<mask id="mask0_1_211" style="mask-type:luminance" maskUnits="userSpaceOnUse" x="0" y="187" width="1030" height="179">
<path d="M1030 187H0V366H1030V187Z" fill="white"/>
</mask>
<g mask="url(#mask0_1_211)">
<path d="M316 187H12C5.37258 187 0 192.373 0 199V354C0 360.627 5.37258 366 12 366H316C322.627 366 328 360.627 328 354V199C328 192.373 322.627 187 316 187Z" fill="#28272E"/>
<path d="M49 242.75C48.788 242.75 48.61 242.678 48.466 242.534C48.322 242.39 48.25 242.212 48.25 242V236.769C47.45 236.769 46.681 236.615 45.944 236.309C45.206 236.003 44.556 235.569 43.994 235.006C43.431 234.444 43 233.794 42.7 233.056C42.4 232.319 42.25 231.55 42.25 230.75V230C42.25 229.788 42.322 229.609 42.466 229.465C42.61 229.322 42.788 229.25 43 229.25H43.75C44.537 229.25 45.3 229.403 46.038 229.709C46.775 230.015 47.425 230.45 47.987 231.012C48.375 231.4 48.697 231.825 48.953 232.288C49.209 232.75 49.406 233.244 49.544 233.769C49.606 233.681 49.675 233.597 49.75 233.516C49.825 233.434 49.906 233.35 49.994 233.263C50.556 232.7 51.206 232.265 51.944 231.959C52.681 231.653 53.45 231.5 54.25 231.5H55C55.212 231.5 55.39 231.572 55.534 231.715C55.678 231.859 55.75 232.038 55.75 232.25V233C55.75 233.8 55.597 234.569 55.291 235.306C54.985 236.044 54.55 236.694 53.987 237.256C53.425 237.819 52.778 238.25 52.047 238.55C51.316 238.85 50.55 239 49.75 239V242C49.75 242.212 49.678 242.39 49.535 242.534C49.391 242.678 49.212 242.75 49 242.75ZM48.25 235.25C48.25 234.65 48.135 234.078 47.904 233.534C47.672 232.99 47.344 232.506 46.919 232.081C46.494 231.656 46.009 231.328 45.465 231.097C44.922 230.866 44.35 230.75 43.75 230.75C43.75 231.35 43.862 231.925 44.087 232.475C44.312 233.025 44.638 233.513 45.062 233.938C45.487 234.362 45.975 234.688 46.525 234.913C47.075 235.138 47.65 235.25 48.25 235.25ZM49.75 237.5C50.35 237.5 50.922 237.388 51.466 237.163C52.01 236.938 52.494 236.612 52.919 236.188C53.344 235.763 53.672 235.275 53.904 234.725C54.135 234.175 54.25 233.6 54.25 233C53.65 233 53.075 233.115 52.525 233.346C51.975 233.578 51.487 233.906 51.062 234.331C50.638 234.756 50.312 235.24 50.087 235.784C49.862 236.328 49.75 236.9 49.75 237.5Z" fill="#B9BCCD"/>
<path d="M58 219.5H40C35.8579 219.5 32.5 222.858 32.5 227V245C32.5 249.142 35.8579 252.5 40 252.5H58C62.1421 252.5 65.5 249.142 65.5 245V227C65.5 222.858 62.1421 219.5 58 219.5Z" stroke="#C78800"/>
<path opacity="0.1" d="M95 326H35C33.3431 326 32 327.343 32 329V331C32 332.657 33.3431 334 35 334H95C96.6569 334 98 332.657 98 331V329C98 327.343 96.6569 326 95 326Z" fill="white"/>
<path d="M316 187.5H12C5.64873 187.5 0.5 192.649 0.5 199V354C0.5 360.351 5.64873 365.5 12 365.5H316C322.351 365.5 327.5 360.351 327.5 354V199C327.5 192.649 322.351 187.5 316 187.5Z" stroke="white" stroke-opacity="0.08"/>
<path d="M667 187H363C356.373 187 351 192.373 351 199V354C351 360.627 356.373 366 363 366H667C673.627 366 679 360.627 679 354V199C679 192.373 673.627 187 667 187Z" fill="#28272E"/>
<path d="M395.5 242.75C394.675 242.75 393.969 242.456 393.381 241.869C392.794 241.281 392.5 240.575 392.5 239.75C392.5 238.925 392.794 238.219 393.381 237.631C393.969 237.044 394.675 236.75 395.5 236.75C396.325 236.75 397.031 237.044 397.619 237.631C398.206 238.219 398.5 238.925 398.5 239.75C398.5 240.575 398.206 241.281 397.619 241.869C397.031 242.456 396.325 242.75 395.5 242.75ZM404.5 242.75C403.675 242.75 402.969 242.456 402.381 241.869C401.794 241.281 401.5 240.575 401.5 239.75C401.5 238.925 401.794 238.219 402.381 237.631C402.969 237.044 403.675 236.75 404.5 236.75C405.325 236.75 406.031 237.044 406.619 237.631C407.206 238.219 407.5 238.925 407.5 239.75C407.5 240.575 407.206 241.281 406.619 241.869C406.031 242.456 405.325 242.75 404.5 242.75ZM395.5 241.25C395.913 241.25 396.266 241.103 396.559 240.809C396.853 240.516 397 240.163 397 239.75C397 239.338 396.853 238.984 396.559 238.691C396.266 238.397 395.913 238.25 395.5 238.25C395.088 238.25 394.734 238.397 394.441 238.691C394.147 238.984 394 239.338 394 239.75C394 240.163 394.147 240.516 394.441 240.809C394.734 241.103 395.088 241.25 395.5 241.25ZM404.5 241.25C404.913 241.25 405.266 241.103 405.559 240.809C405.853 240.516 406 240.163 406 239.75C406 239.338 405.853 238.984 405.559 238.691C405.266 238.397 404.913 238.25 404.5 238.25C404.088 238.25 403.734 238.397 403.441 238.691C403.147 238.984 403 239.338 403 239.75C403 240.163 403.147 240.516 403.441 240.809C403.734 241.103 404.088 241.25 404.5 241.25ZM400 235.25C399.175 235.25 398.469 234.956 397.881 234.369C397.294 233.781 397 233.075 397 232.25C397 231.425 397.294 230.719 397.881 230.131C398.469 229.544 399.175 229.25 400 229.25C400.825 229.25 401.531 229.544 402.119 230.131C402.706 230.719 403 231.425 403 232.25C403 233.075 402.706 233.781 402.119 234.369C401.531 234.956 400.825 235.25 400 235.25ZM400 233.75C400.413 233.75 400.766 233.603 401.059 233.309C401.353 233.016 401.5 232.663 401.5 232.25C401.5 231.838 401.353 231.484 401.059 231.191C400.766 230.897 400.413 230.75 400 230.75C399.588 230.75 399.234 230.897 398.941 231.191C398.647 231.484 398.5 231.838 398.5 232.25C398.5 232.663 398.647 233.016 398.941 233.309C399.234 233.603 399.588 233.75 400 233.75Z" fill="#B9BCCD"/>
<path d="M409 219.5H391C386.858 219.5 383.5 222.858 383.5 227V245C383.5 249.142 386.858 252.5 391 252.5H409C413.142 252.5 416.5 249.142 416.5 245V227C416.5 222.858 413.142 219.5 409 219.5Z" stroke="#4BB38B"/>
<path opacity="0.1" d="M446 326H386C384.343 326 383 327.343 383 329V331C383 332.657 384.343 334 386 334H446C447.657 334 449 332.657 449 331V329C449 327.343 447.657 326 446 326Z" fill="white"/>
<path d="M667 187.5H363C356.649 187.5 351.5 192.649 351.5 199V354C351.5 360.351 356.649 365.5 363 365.5H667C673.351 365.5 678.5 360.351 678.5 354V199C678.5 192.649 673.351 187.5 667 187.5Z" stroke="white" stroke-opacity="0.08"/>
<path d="M1018 187H714C707.373 187 702 192.373 702 199V354C702 360.627 707.373 366 714 366H1018C1024.63 366 1030 360.627 1030 354V199C1030 192.373 1024.63 187 1018 187Z" fill="#28272E"/>
<path d="M751 243.5C750.68 243.5 750.38 243.422 750.12 243.266C749.86 243.109 749.65 242.9 749.5 242.638C749.09 242.638 748.73 242.491 748.44 242.197C748.15 241.903 748 241.55 748 241.138V238.475C747.26 237.988 746.67 237.344 746.23 236.544C745.78 235.744 745.56 234.875 745.56 233.938C745.56 232.425 746.09 231.141 747.15 230.084C748.2 229.028 749.49 228.5 751 228.5C752.51 228.5 753.8 229.028 754.85 230.084C755.91 231.141 756.44 232.425 756.44 233.938C756.44 234.9 756.22 235.775 755.77 236.563C755.33 237.35 754.74 237.988 754 238.475V241.138C754 241.55 753.85 241.903 753.56 242.197C753.27 242.491 752.91 242.638 752.5 242.638C752.35 242.9 752.14 243.109 751.88 243.266C751.62 243.422 751.33 243.5 751 243.5ZM749.5 241.138H752.5V240.463H749.5V241.138ZM749.5 239.713H752.5V239H749.5V239.713ZM749.35 237.5H750.44V235.475L749.16 234.2C749.06 234.1 749.01 233.975 749.01 233.825C749.01 233.675 749.07 233.544 749.18 233.431C749.29 233.319 749.43 233.263 749.58 233.263C749.73 233.263 749.86 233.319 749.97 233.431L751 234.463L752.05 233.413C752.15 233.313 752.28 233.263 752.43 233.263C752.58 233.263 752.71 233.319 752.82 233.431C752.93 233.544 752.99 233.675 752.99 233.825C752.99 233.975 752.93 234.106 752.82 234.219L751.56 235.475V237.5H752.65C753.33 237.175 753.88 236.697 754.3 236.066C754.73 235.434 754.94 234.725 754.94 233.938C754.94 232.838 754.56 231.906 753.79 231.144C753.03 230.381 752.1 230 751 230C749.9 230 748.97 230.381 748.21 231.144C747.44 231.906 747.06 232.838 747.06 233.938C747.06 234.725 747.28 235.434 747.7 236.066C748.13 236.697 748.68 237.175 749.35 237.5Z" fill="#B9BCCD"/>
<path d="M760 219.5H742C737.858 219.5 734.5 222.858 734.5 227V245C734.5 249.142 737.858 252.5 742 252.5H760C764.142 252.5 767.5 249.142 767.5 245V227C767.5 222.858 764.142 219.5 760 219.5Z" stroke="#5C78B8"/>
<path opacity="0.1" d="M797 326H737C735.343 326 734 327.343 734 329V331C734 332.657 735.343 334 737 334H797C798.657 334 800 332.657 800 331V329C800 327.343 798.657 326 797 326Z" fill="white"/>
<path d="M1018 187.5H714C707.649 187.5 702.5 192.649 702.5 199V354C702.5 360.351 707.649 365.5 714 365.5H1018C1024.35 365.5 1029.5 360.351 1029.5 354V199C1029.5 192.649 1024.35 187.5 1018 187.5Z" stroke="white" stroke-opacity="0.08"/>
</g>
<path d="M1018 390H715C708.373 390 703 395.373 703 402V786C703 792.627 708.373 798 715 798H1018C1024.63 798 1030 792.627 1030 786V402C1030 395.373 1024.63 390 1018 390Z" fill="#28272E"/>
<path d="M1018 390.5H715C708.649 390.5 703.5 395.649 703.5 402V786C703.5 792.351 708.649 797.5 715 797.5H1018C1024.35 797.5 1029.5 792.351 1029.5 786V402C1029.5 395.649 1024.35 390.5 1018 390.5Z" stroke="white" stroke-opacity="0.08"/>
<path d="M667 390H12C5.37258 390 0 395.373 0 402V786C0 792.627 5.37258 798 12 798H667C673.627 798 679 792.627 679 786V402C679 395.373 673.627 390 667 390Z" fill="#28272E"/>
<rect x="23" y="422" width="126" height="14" rx="2" fill="#5C5C5C"/>
<rect x="732" y="422" width="126" height="14" rx="2" fill="#5C5C5C"/>
<rect x="156" y="422" width="47" height="14" rx="2" fill="#5C5C5C"/>
<rect x="608" y="422" width="47" height="14" rx="2" fill="#2B2B2D"/>
<path d="M667 390.5H12C5.64873 390.5 0.5 395.649 0.5 402V786C0.5 792.351 5.64873 797.5 12 797.5H667C673.351 797.5 678.5 792.351 678.5 786V402C678.5 395.649 673.351 390.5 667 390.5Z" stroke="white" stroke-opacity="0.08"/>
<g opacity="0.3">
<path d="M654.323 380.5C653.662 379.878 652.591 379.878 651.93 380.5C651.269 381.123 651.269 382.133 651.93 382.755C652.591 383.378 653.662 383.378 654.323 382.755C654.984 382.133 654.984 381.123 654.323 380.5Z" fill="#030229"/>
<path d="M649.245 380.5C648.584 379.878 647.513 379.878 646.852 380.5C646.191 381.123 646.191 382.133 646.852 382.755C647.513 383.378 648.584 383.378 649.245 382.755C649.906 382.133 649.906 381.123 649.245 380.5Z" fill="#030229"/>
<path d="M644.167 380.5C643.506 379.878 642.435 379.878 641.774 380.5C641.113 381.123 641.113 382.133 641.774 382.755C642.435 383.378 643.506 383.378 644.167 382.755C644.828 382.133 644.828 381.123 644.167 380.5Z" fill="#030229"/>
</g>
<path opacity="0.05" d="M59.969 683.5H679" stroke="#030229"/>
<path opacity="0.05" d="M59.969 632.5H679" stroke="#030229"/>
<path opacity="0.05" d="M59.969 581.5H679" stroke="#030229"/>
<path opacity="0.05" d="M59.969 530.5H679" stroke="#030229"/>
<path opacity="0.05" d="M59.969 479.5H679" stroke="#030229"/>
<g filter="url(#filter0_d_1_211)">
<path d="M61 597.789L67.994 605.946C75.03 613.798 89.223 630.569 103.13 642.537C117.078 654.963 130.944 662.587 145.26 646.578C159.167 630.569 173.074 589.403 187.39 589.632C201.256 589.403 215.203 630.569 229.11 642.537C243.304 654.963 257.333 638.192 271.24 646.578C285.393 654.963 299.463 686.981 313.37 675.013C327.441 662.587 341.593 606.174 355.5 609.986C369.53 613.798 383.723 643.549 397.63 675.796C411.578 708.347 425.444 708.347 439.76 687.993C455.611 668.51 463.35 660.889 480.395 650.159C498.376 640.311 509.703 654.963 523.61 638.421C537.804 622.183 551.833 573.394 565.74 565.238C579.893 557.386 593.963 589.403 607.87 593.749C621.941 597.789 636.093 573.394 643.047 561.197L650 549" stroke="#4747EB" stroke-width="4" stroke-linecap="round"/>
</g>
<g filter="url(#filter1_d_1_211)">
<path d="M185.48 597C189.219 597 192.251 593.866 192.251 590C192.251 586.134 189.219 583 185.48 583C181.741 583 178.709 586.134 178.709 590C178.709 593.866 181.741 597 185.48 597Z" fill="white"/>
<path d="M190.751 590C190.751 593.085 188.344 595.5 185.48 595.5C182.616 595.5 180.209 593.085 180.209 590C180.209 586.915 182.616 584.5 185.48 584.5C188.344 584.5 190.751 586.915 190.751 590Z" stroke="#4747EB" stroke-width="3"/>
</g>
<g filter="url(#filter2_d_1_211)">
<path d="M263.794 651C267.533 651 270.565 647.866 270.565 644C270.565 640.134 267.533 637 263.794 637C260.055 637 257.023 640.134 257.023 644C257.023 647.866 260.055 651 263.794 651Z" fill="white"/>
<path d="M269.064 644C269.064 647.085 266.658 649.5 263.793 649.5C260.929 649.5 258.523 647.085 258.523 644C258.523 640.915 260.929 638.5 263.793 638.5C266.658 638.5 269.064 640.915 269.064 644Z" stroke="#4747EB" stroke-width="3"/>
</g>
<g filter="url(#filter3_d_1_211)">
<path d="M353.484 617C357.223 617 360.255 613.866 360.255 610C360.255 606.134 357.223 603 353.484 603C349.745 603 346.713 606.134 346.713 610C346.713 613.866 349.745 617 353.484 617Z" fill="white"/>
<path d="M358.755 610C358.755 613.085 356.349 615.5 353.484 615.5C350.62 615.5 348.214 613.085 348.214 610C348.214 606.915 350.62 604.5 353.484 604.5C356.349 604.5 358.755 606.915 358.755 610Z" stroke="#4747EB" stroke-width="3"/>
</g>
<g filter="url(#filter4_d_1_211)">
<path d="M483.799 655C487.538 655 490.57 651.866 490.57 648C490.57 644.134 487.538 641 483.799 641C480.06 641 477.028 644.134 477.028 648C477.028 651.866 480.06 655 483.799 655Z" fill="white"/>
<path d="M489.07 648C489.07 651.085 486.663 653.5 483.799 653.5C480.935 653.5 478.529 651.085 478.529 648C478.529 644.915 480.935 642.5 483.799 642.5C486.663 642.5 489.07 644.915 489.07 648Z" stroke="#4747EB" stroke-width="3"/>
</g>
<g filter="url(#filter5_d_1_211)">
<path d="M571.818 571C575.557 571 578.589 567.866 578.589 564C578.589 560.134 575.557 557 571.818 557C568.079 557 565.047 560.134 565.047 564C565.047 567.866 568.079 571 571.818 571Z" fill="white"/>
<path d="M577.088 564C577.088 567.085 574.682 569.5 571.818 569.5C568.954 569.5 566.547 567.085 566.547 564C566.547 560.915 568.954 558.5 571.818 558.5C574.682 558.5 577.088 560.915 577.088 564Z" stroke="#4747EB" stroke-width="3"/>
</g>
<g filter="url(#filter6_d_1_211)">
<path fill-rule="evenodd" clip-rule="evenodd" d="M321 534C315.477 534 311 538.477 311 544V580C311 585.523 315.477 590 321 590H348.533L352.685 597.437C353.067 598.12 354.05 598.12 354.432 597.437L358.584 590H387.084C392.607 590 397.084 585.523 397.084 580V544C397.084 538.477 392.607 534 387.084 534H321Z" fill="#4747EB"/>
</g>
<path opacity="0.8" d="M337.007 550.148C337.007 549.804 337.087 549.5 337.247 549.236C337.399 548.964 337.611 548.752 337.883 548.6C338.147 548.44 338.451 548.36 338.795 548.36H345.563C345.907 548.36 346.211 548.44 346.475 548.6C346.747 548.752 346.959 548.964 347.111 549.236C347.271 549.5 347.351 549.804 347.351 550.148V550.172C347.351 550.516 347.271 550.824 347.111 551.096C346.959 551.36 346.747 551.572 346.475 551.732C346.211 551.884 345.907 551.96 345.563 551.96H338.795C338.451 551.96 338.147 551.884 337.883 551.732C337.611 551.572 337.399 551.36 337.247 551.096C337.087 550.824 337.007 550.516 337.007 550.172V550.148ZM343.745 550.148C343.745 549.804 343.825 549.5 343.985 549.236C344.137 548.964 344.349 548.752 344.621 548.6C344.885 548.44 345.189 548.36 345.533 548.36H352.301C352.645 548.36 352.949 548.44 353.213 548.6C353.485 548.752 353.697 548.964 353.849 549.236C354.009 549.5 354.089 549.804 354.089 550.148V550.172C354.089 550.516 354.009 550.824 353.849 551.096C353.697 551.36 353.485 551.572 353.213 551.732C352.949 551.884 352.645 551.96 352.301 551.96H345.533C345.189 551.96 344.885 551.884 344.621 551.732C344.349 551.572 344.137 551.36 343.985 551.096C343.825 550.824 343.745 550.516 343.745 550.172V550.148ZM350.483 550.148C350.483 549.804 350.563 549.5 350.723 549.236C350.875 548.964 351.087 548.752 351.359 548.6C351.623 548.44 351.927 548.36 352.271 548.36H355.727C356.071 548.36 356.375 548.44 356.639 548.6C356.911 548.752 357.123 548.964 357.275 549.236C357.435 549.5 357.515 549.804 357.515 550.148V550.172C357.515 550.516 357.435 550.824 357.275 551.096C357.123 551.36 356.911 551.572 356.639 551.732C356.375 551.884 356.071 551.96 355.727 551.96H352.271C351.927 551.96 351.623 551.884 351.359 551.732C351.087 551.572 350.875 551.36 350.723 551.096C350.563 550.824 350.483 550.516 350.483 550.172V550.148ZM353.917 550.148C353.917 549.804 353.997 549.5 354.157 549.236C354.309 548.964 354.521 548.752 354.793 548.6C355.057 548.44 355.361 548.36 355.705 548.36H362.473C362.817 548.36 363.121 548.44 363.385 548.6C363.657 548.752 363.869 548.964 364.021 549.236C364.181 549.5 364.261 549.804 364.261 550.148V550.172C364.261 550.516 364.181 550.824 364.021 551.096C363.869 551.36 363.657 551.572 363.385 551.732C363.121 551.884 362.817 551.96 362.473 551.96H355.705C355.361 551.96 355.057 551.884 354.793 551.732C354.521 551.572 354.309 551.36 354.157 551.096C353.997 550.824 353.917 550.516 353.917 550.172V550.148ZM360.655 550.148C360.655 549.804 360.735 549.5 360.895 549.236C361.047 548.964 361.259 548.752 361.531 548.6C361.795 548.44 362.099 548.36 362.443 548.36H369.211C369.555 548.36 369.859 548.44 370.123 548.6C370.395 548.752 370.607 548.964 370.759 549.236C370.919 549.5 370.999 549.804 370.999 550.148V550.172C370.999 550.516 370.919 550.824 370.759 551.096C370.607 551.36 370.395 551.572 370.123 551.732C369.859 551.884 369.555 551.96 369.211 551.96H362.443C362.099 551.96 361.795 551.884 361.531 551.732C361.259 551.572 361.047 551.36 360.895 551.096C360.735 550.824 360.655 550.516 360.655 550.172V550.148Z" fill="white"/>
<path d="M333.003 575V573.477L337.043 569.517C337.429 569.127 337.751 568.78 338.009 568.477C338.266 568.174 338.459 567.881 338.588 567.597C338.717 567.312 338.781 567.009 338.781 566.687C338.781 566.32 338.698 566.006 338.531 565.744C338.365 565.479 338.135 565.275 337.844 565.131C337.552 564.987 337.221 564.915 336.849 564.915C336.467 564.915 336.132 564.994 335.844 565.153C335.556 565.309 335.332 565.53 335.173 565.818C335.018 566.106 334.94 566.449 334.94 566.847H332.935C332.935 566.108 333.103 565.466 333.44 564.92C333.777 564.375 334.242 563.953 334.832 563.653C335.427 563.354 336.109 563.205 336.878 563.205C337.658 563.205 338.344 563.35 338.935 563.642C339.526 563.934 339.984 564.333 340.31 564.841C340.639 565.348 340.804 565.928 340.804 566.58C340.804 567.015 340.721 567.443 340.554 567.864C340.387 568.284 340.094 568.75 339.673 569.261C339.257 569.773 338.671 570.392 337.918 571.119L335.912 573.159V573.239H340.98V575H333.003ZM345.378 573.409L345.304 574.034C345.251 574.511 345.156 574.996 345.02 575.489C344.887 575.985 344.747 576.441 344.599 576.858C344.452 577.275 344.332 577.602 344.242 577.841H342.855C342.908 577.61 342.98 577.295 343.071 576.898C343.166 576.5 343.257 576.053 343.344 575.557C343.431 575.061 343.49 574.557 343.52 574.045L343.56 573.409H345.378ZM351.467 575.159C350.911 575.155 350.367 575.059 349.837 574.869C349.306 574.676 348.829 574.364 348.405 573.932C347.981 573.496 347.643 572.919 347.393 572.199C347.143 571.475 347.02 570.58 347.024 569.511C347.024 568.515 347.13 567.627 347.342 566.847C347.554 566.066 347.859 565.407 348.257 564.869C348.655 564.328 349.134 563.915 349.695 563.631C350.259 563.347 350.89 563.205 351.587 563.205C352.318 563.205 352.965 563.348 353.53 563.636C354.098 563.924 354.556 564.318 354.905 564.818C355.253 565.314 355.469 565.875 355.553 566.5H353.479C353.373 566.053 353.155 565.697 352.825 565.432C352.5 565.163 352.087 565.028 351.587 565.028C350.78 565.028 350.159 565.379 349.723 566.08C349.291 566.78 349.073 567.742 349.07 568.966H349.149C349.335 568.633 349.575 568.347 349.871 568.108C350.166 567.869 350.5 567.686 350.871 567.557C351.246 567.424 351.642 567.358 352.058 567.358C352.74 567.358 353.352 567.521 353.893 567.847C354.439 568.172 354.871 568.621 355.189 569.193C355.507 569.761 355.664 570.413 355.661 571.148C355.664 571.913 355.49 572.6 355.138 573.21C354.786 573.816 354.295 574.294 353.666 574.642C353.037 574.991 352.304 575.163 351.467 575.159ZM351.456 573.455C351.869 573.455 352.238 573.354 352.564 573.153C352.89 572.953 353.147 572.682 353.337 572.341C353.526 572 353.619 571.617 353.615 571.193C353.619 570.776 353.528 570.4 353.342 570.062C353.161 569.725 352.909 569.458 352.587 569.261C352.265 569.064 351.897 568.966 351.484 568.966C351.178 568.966 350.892 569.025 350.626 569.142C350.361 569.259 350.13 569.422 349.933 569.631C349.736 569.835 349.581 570.074 349.467 570.347C349.358 570.616 349.301 570.903 349.297 571.21C349.301 571.616 349.395 571.989 349.581 572.33C349.767 572.67 350.022 572.943 350.348 573.148C350.674 573.352 351.043 573.455 351.456 573.455ZM358.007 575L362.956 565.205V565.125H357.212V563.364H365.138V565.165L360.195 575H358.007ZM370.874 575.159C370.029 575.159 369.279 575.017 368.624 574.733C367.972 574.449 367.461 574.061 367.09 573.568C366.722 573.072 366.54 572.509 366.544 571.881C366.54 571.392 366.646 570.943 366.862 570.534C367.078 570.125 367.37 569.784 367.737 569.511C368.108 569.235 368.521 569.059 368.976 568.983V568.903C368.377 568.771 367.893 568.466 367.521 567.989C367.154 567.508 366.972 566.953 366.976 566.324C366.972 565.725 367.139 565.191 367.476 564.722C367.813 564.252 368.275 563.883 368.862 563.614C369.449 563.341 370.12 563.205 370.874 563.205C371.62 563.205 372.285 563.341 372.868 563.614C373.455 563.883 373.917 564.252 374.254 564.722C374.595 565.191 374.766 565.725 374.766 566.324C374.766 566.953 374.578 567.508 374.203 567.989C373.832 568.466 373.353 568.771 372.766 568.903V568.983C373.22 569.059 373.629 569.235 373.993 569.511C374.36 569.784 374.652 570.125 374.868 570.534C375.088 570.943 375.197 571.392 375.197 571.881C375.197 572.509 375.012 573.072 374.641 573.568C374.269 574.061 373.758 574.449 373.107 574.733C372.459 575.017 371.715 575.159 370.874 575.159ZM370.874 573.534C371.309 573.534 371.688 573.46 372.01 573.312C372.332 573.161 372.582 572.949 372.76 572.676C372.938 572.403 373.029 572.089 373.033 571.733C373.029 571.362 372.932 571.034 372.743 570.75C372.557 570.462 372.302 570.237 371.976 570.074C371.654 569.911 371.286 569.83 370.874 569.83C370.457 569.83 370.086 569.911 369.76 570.074C369.434 570.237 369.177 570.462 368.987 570.75C368.802 571.034 368.711 571.362 368.715 571.733C368.711 572.089 368.798 572.403 368.976 572.676C369.154 572.945 369.404 573.155 369.726 573.307C370.052 573.458 370.434 573.534 370.874 573.534ZM370.874 568.233C371.23 568.233 371.544 568.161 371.817 568.017C372.093 567.873 372.311 567.672 372.47 567.415C372.629 567.157 372.711 566.86 372.715 566.523C372.711 566.189 372.631 565.898 372.476 565.648C372.321 565.394 372.105 565.199 371.828 565.062C371.552 564.922 371.233 564.852 370.874 564.852C370.506 564.852 370.182 564.922 369.902 565.062C369.626 565.199 369.41 565.394 369.254 565.648C369.103 565.898 369.029 566.189 369.033 566.523C369.029 566.86 369.105 567.157 369.26 567.415C369.419 567.669 369.637 567.869 369.913 568.017C370.194 568.161 370.514 568.233 370.874 568.233Z" fill="white"/>
<rect x="2" y="87" width="294" height="11" rx="2" fill="#2B2B2D"/>
<rect x="2" y="106" width="122" height="11" rx="2" fill="#2B2B2D"/>
<path d="M14.0909 67H4.72585V39.3636H14.2798C17.0237 39.3636 19.3807 39.9169 21.3509 41.0234C23.33 42.121 24.8504 43.6998 25.9119 45.7599C26.9735 47.8201 27.5043 50.285 27.5043 53.1548C27.5043 56.0336 26.969 58.5076 25.8984 60.5767C24.8369 62.6458 23.303 64.2337 21.2969 65.3402C19.2997 66.4467 16.8977 67 14.0909 67ZM9.73224 62.6683H13.848C15.7732 62.6683 17.379 62.3175 18.6655 61.6158C19.9519 60.9051 20.919 59.848 21.5668 58.4446C22.2145 57.0322 22.5384 55.2689 22.5384 53.1548C22.5384 51.0407 22.2145 49.2865 21.5668 47.892C20.919 46.4886 19.9609 45.4406 18.6925 44.7479C17.433 44.0462 15.8677 43.6953 13.9964 43.6953H9.73224V62.6683ZM38.0096 67.4183C36.6961 67.4183 35.5131 67.1844 34.4606 66.7166C33.417 66.2398 32.5894 65.5381 31.9776 64.6115C31.3749 63.6849 31.0735 62.5424 31.0735 61.1839C31.0735 60.0144 31.2894 59.0473 31.7212 58.2827C32.1531 57.518 32.7423 56.9062 33.489 56.4474C34.2357 55.9886 35.0768 55.6423 36.0124 55.4084C36.957 55.1655 37.9331 54.9901 38.9407 54.8821C40.1552 54.7562 41.1403 54.6437 41.896 54.5447C42.6516 54.4368 43.2004 54.2749 43.5423 54.0589C43.8931 53.834 44.0685 53.4877 44.0685 53.0199V52.9389C44.0685 51.9223 43.7672 51.1352 43.1644 50.5774C42.5617 50.0196 41.6935 49.7408 40.56 49.7408C39.3635 49.7408 38.4144 50.0017 37.7127 50.5234C37.02 51.0452 36.5522 51.6615 36.3093 52.3722L31.7482 51.7244C32.1081 50.465 32.7018 49.4124 33.5295 48.5668C34.3571 47.7121 35.3692 47.0734 36.5657 46.6506C37.7622 46.2188 39.0846 46.0028 40.533 46.0028C41.5316 46.0028 42.5257 46.1198 43.5153 46.3537C44.5049 46.5876 45.409 46.9744 46.2276 47.5142C47.0463 48.045 47.703 48.7692 48.1978 49.6868C48.7016 50.6044 48.9535 51.7514 48.9535 53.1278V67H44.2575V64.1527H44.0955C43.7987 64.7285 43.3803 65.2682 42.8406 65.772C42.3098 66.2668 41.6396 66.6671 40.8299 66.973C40.0292 67.2699 39.0891 67.4183 38.0096 67.4183ZM39.2781 63.8288C40.2586 63.8288 41.1088 63.6354 41.8285 63.2486C42.5482 62.8527 43.1014 62.331 43.4883 61.6832C43.8841 61.0355 44.082 60.3293 44.082 59.5646V57.1222C43.9291 57.2481 43.6682 57.3651 43.2994 57.473C42.9395 57.581 42.5347 57.6754 42.0849 57.7564C41.6351 57.8374 41.1897 57.9093 40.7489 57.9723C40.3081 58.0353 39.9258 58.0893 39.6019 58.1342C38.8732 58.2332 38.221 58.3951 37.6452 58.62C37.0695 58.8449 36.6152 59.1598 36.2823 59.5646C35.9495 59.9605 35.783 60.4732 35.783 61.103C35.783 62.0026 36.1114 62.6818 36.7681 63.1406C37.4248 63.5994 38.2615 63.8288 39.2781 63.8288ZM70.2475 51.7514L65.7944 52.2372C65.6684 51.7874 65.448 51.3646 65.1332 50.9688C64.8273 50.5729 64.4135 50.2536 63.8917 50.0107C63.3699 49.7678 62.7312 49.6463 61.9755 49.6463C60.9589 49.6463 60.1043 49.8667 59.4116 50.3075C58.7279 50.7483 58.3905 51.3196 58.3995 52.0213C58.3905 52.6241 58.6109 53.1143 59.0607 53.4922C59.5195 53.87 60.2752 54.1804 61.3278 54.4233L64.8633 55.179C66.8245 55.6018 68.2818 56.272 69.2354 57.1896C70.198 58.1072 70.6838 59.3082 70.6928 60.7926C70.6838 62.0971 70.3015 63.2486 69.5458 64.2472C68.7991 65.2367 67.7601 66.0104 66.4286 66.5682C65.0972 67.1259 63.5678 67.4048 61.8406 67.4048C59.3036 67.4048 57.2615 66.8741 55.7141 65.8125C54.1668 64.742 53.2447 63.2531 52.9478 61.3459L57.7113 60.8871C57.9272 61.8227 58.386 62.5289 59.0877 63.0057C59.7894 63.4825 60.7025 63.7209 61.8271 63.7209C62.9876 63.7209 63.9187 63.4825 64.6204 63.0057C65.3311 62.5289 65.6864 61.9396 65.6864 61.2379C65.6864 60.6442 65.457 60.1539 64.9982 59.767C64.5484 59.3802 63.8467 59.0833 62.8931 58.8764L59.3576 58.1342C57.3694 57.7204 55.8986 57.0232 54.945 56.0426C53.9914 55.053 53.5191 53.8026 53.5281 52.2912C53.5191 51.0137 53.8654 49.9072 54.5671 48.9716C55.2778 48.027 56.2629 47.2983 57.5224 46.7855C58.7908 46.2637 60.2527 46.0028 61.908 46.0028C64.337 46.0028 66.2487 46.5201 67.6431 47.5547C69.0465 48.5893 69.9147 49.9882 70.2475 51.7514ZM79.6058 54.8551V67H74.7209V39.3636H79.4979V49.7947H79.7408C80.2266 48.6252 80.9777 47.7031 81.9943 47.0284C83.0199 46.3447 84.3243 46.0028 85.9077 46.0028C87.3471 46.0028 88.602 46.3042 89.6726 46.907C90.7431 47.5097 91.5708 48.3913 92.1555 49.5518C92.7493 50.7124 93.0462 52.1293 93.0462 53.8026V67H88.1612V54.5582C88.1612 53.1638 87.8014 52.0798 87.0817 51.3061C86.371 50.5234 85.3724 50.1321 84.0859 50.1321C83.2223 50.1321 82.4486 50.321 81.7649 50.6989C81.0902 51.0677 80.5594 51.603 80.1726 52.3047C79.7947 53.0064 79.6058 53.8565 79.6058 54.8551ZM98.2415 67V39.3636H103.126V49.7003H103.329C103.581 49.1965 103.936 48.6612 104.395 48.0945C104.854 47.5187 105.474 47.0284 106.257 46.6236C107.04 46.2098 108.038 46.0028 109.253 46.0028C110.854 46.0028 112.298 46.4122 113.585 47.2308C114.88 48.0405 115.906 49.2415 116.661 50.8338C117.426 52.4171 117.808 54.3603 117.808 56.6634C117.808 58.9394 117.435 60.8736 116.688 62.4659C115.942 64.0582 114.925 65.2727 113.638 66.1094C112.352 66.946 110.895 67.3643 109.266 67.3643C108.079 67.3643 107.094 67.1664 106.311 66.7706C105.528 66.3748 104.899 65.898 104.422 65.3402C103.954 64.7734 103.59 64.2382 103.329 63.7344H103.045V67H98.2415ZM103.032 56.6364C103.032 57.9768 103.221 59.1508 103.599 60.1584C103.986 61.166 104.539 61.9531 105.259 62.5199C105.987 63.0777 106.869 63.3565 107.903 63.3565C108.983 63.3565 109.887 63.0687 110.616 62.4929C111.344 61.9081 111.893 61.112 112.262 60.1044C112.64 59.0878 112.829 57.9318 112.829 56.6364C112.829 55.3499 112.644 54.2074 112.276 53.2088C111.907 52.2102 111.358 51.4276 110.629 50.8608C109.901 50.294 108.992 50.0107 107.903 50.0107C106.86 50.0107 105.974 50.285 105.245 50.8338C104.516 51.3826 103.963 52.1518 103.585 53.1413C103.216 54.1309 103.032 55.2959 103.032 56.6364ZM131.002 67.4048C128.978 67.4048 127.224 66.9595 125.74 66.0689C124.255 65.1783 123.104 63.9323 122.285 62.331C121.475 60.7296 121.07 58.8584 121.07 56.7173C121.07 54.5762 121.475 52.7005 122.285 51.0902C123.104 49.4799 124.255 48.2294 125.74 47.3388C127.224 46.4482 128.978 46.0028 131.002 46.0028C133.026 46.0028 134.781 46.4482 136.265 47.3388C137.749 48.2294 138.896 49.4799 139.706 51.0902C140.525 52.7005 140.934 54.5762 140.934 56.7173C140.934 58.8584 140.525 60.7296 139.706 62.331C138.896 63.9323 137.749 65.1783 136.265 66.0689C134.781 66.9595 133.026 67.4048 131.002 67.4048ZM131.029 63.4915C132.127 63.4915 133.044 63.1901 133.782 62.5874C134.52 61.9756 135.069 61.157 135.428 60.1314C135.797 59.1058 135.982 57.9633 135.982 56.7038C135.982 55.4354 135.797 54.2884 135.428 53.2628C135.069 52.2282 134.52 51.4051 133.782 50.7933C133.044 50.1816 132.127 49.8757 131.029 49.8757C129.905 49.8757 128.969 50.1816 128.222 50.7933C127.485 51.4051 126.932 52.2282 126.563 53.2628C126.203 54.2884 126.023 55.4354 126.023 56.7038C126.023 57.9633 126.203 59.1058 126.563 60.1314C126.932 61.157 127.485 61.9756 128.222 62.5874C128.969 63.1901 129.905 63.4915 131.029 63.4915ZM151.045 67.4183C149.731 67.4183 148.548 67.1844 147.496 66.7166C146.452 66.2398 145.625 65.5381 145.013 64.6115C144.41 63.6849 144.109 62.5424 144.109 61.1839C144.109 60.0144 144.325 59.0473 144.756 58.2827C145.188 57.518 145.777 56.9062 146.524 56.4474C147.271 55.9886 148.112 55.6423 149.048 55.4084C149.992 55.1655 150.968 54.9901 151.976 54.8821C153.19 54.7562 154.175 54.6437 154.931 54.5447C155.687 54.4368 156.236 54.2749 156.577 54.0589C156.928 53.834 157.104 53.4877 157.104 53.0199V52.9389C157.104 51.9223 156.802 51.1352 156.2 50.5774C155.597 50.0196 154.729 49.7408 153.595 49.7408C152.399 49.7408 151.45 50.0017 150.748 50.5234C150.055 51.0452 149.587 51.6615 149.344 52.3722L144.783 51.7244C145.143 50.465 145.737 49.4124 146.565 48.5668C147.392 47.7121 148.404 47.0734 149.601 46.6506C150.797 46.2188 152.12 46.0028 153.568 46.0028C154.567 46.0028 155.561 46.1198 156.55 46.3537C157.54 46.5876 158.444 46.9744 159.263 47.5142C160.081 48.045 160.738 48.7692 161.233 49.6868C161.737 50.6044 161.989 51.7514 161.989 53.1278V67H157.293V64.1527H157.131C156.834 64.7285 156.415 65.2682 155.876 65.772C155.345 66.2668 154.675 66.6671 153.865 66.973C153.064 67.2699 152.124 67.4183 151.045 67.4183ZM152.313 63.8288C153.294 63.8288 154.144 63.6354 154.864 63.2486C155.583 62.8527 156.137 62.331 156.523 61.6832C156.919 61.0355 157.117 60.3293 157.117 59.5646V57.1222C156.964 57.2481 156.703 57.3651 156.335 57.473C155.975 57.581 155.57 57.6754 155.12 57.7564C154.67 57.8374 154.225 57.9093 153.784 57.9723C153.343 58.0353 152.961 58.0893 152.637 58.1342C151.908 58.2332 151.256 58.3951 150.68 58.62C150.105 58.8449 149.65 59.1598 149.317 59.5646C148.985 59.9605 148.818 60.4732 148.818 61.103C148.818 62.0026 149.147 62.6818 149.803 63.1406C150.46 63.5994 151.297 63.8288 152.313 63.8288ZM166.901 67V46.2727H171.637V49.7273H171.853C172.231 48.5308 172.879 47.6087 173.796 46.9609C174.723 46.3042 175.78 45.9759 176.967 45.9759C177.237 45.9759 177.539 45.9893 177.871 46.0163C178.213 46.0343 178.497 46.0658 178.722 46.1108V50.6044C178.515 50.5324 178.186 50.4695 177.737 50.4155C177.296 50.3525 176.868 50.321 176.455 50.321C175.564 50.321 174.763 50.5144 174.053 50.9013C173.351 51.2791 172.798 51.8054 172.393 52.4801C171.988 53.1548 171.786 53.933 171.786 54.8146V67H166.901ZM188.805 67.3643C187.177 67.3643 185.72 66.946 184.433 66.1094C183.147 65.2727 182.13 64.0582 181.383 62.4659C180.637 60.8736 180.263 58.9394 180.263 56.6634C180.263 54.3603 180.641 52.4171 181.397 50.8338C182.162 49.2415 183.192 48.0405 184.487 47.2308C185.782 46.4122 187.226 46.0028 188.819 46.0028C190.033 46.0028 191.032 46.2098 191.814 46.6236C192.597 47.0284 193.218 47.5187 193.677 48.0945C194.135 48.6612 194.491 49.1965 194.743 49.7003H194.945V39.3636H199.844V67H195.04V63.7344H194.743C194.491 64.2382 194.126 64.7734 193.65 65.3402C193.173 65.898 192.543 66.3748 191.76 66.7706C190.978 67.1664 189.993 67.3643 188.805 67.3643ZM190.168 63.3565C191.203 63.3565 192.084 63.0777 192.813 62.5199C193.542 61.9531 194.095 61.166 194.473 60.1584C194.851 59.1508 195.04 57.9768 195.04 56.6364C195.04 55.2959 194.851 54.1309 194.473 53.1413C194.104 52.1518 193.555 51.3826 192.827 50.8338C192.107 50.285 191.221 50.0107 190.168 50.0107C189.08 50.0107 188.171 50.294 187.442 50.8608C186.714 51.4276 186.165 52.2102 185.796 53.2088C185.427 54.2074 185.243 55.3499 185.243 56.6364C185.243 57.9318 185.427 59.0878 185.796 60.1044C186.174 61.112 186.727 61.9081 187.456 62.4929C188.193 63.0687 189.098 63.3565 190.168 63.3565Z" fill="white"/>
<path d="M44.255 279.273V304H39.7756V283.631H39.6307L33.8473 287.326V283.221L39.9929 279.273H44.255ZM54.3517 300.619L54.1948 301.947C54.0821 302.962 53.8809 303.992 53.5911 305.038C53.3094 306.093 53.0115 307.063 52.6976 307.948C52.3837 308.834 52.1301 309.53 51.937 310.037H48.9909C49.1036 309.546 49.2566 308.878 49.4498 308.033C49.651 307.188 49.8442 306.238 50.0293 305.183C50.2144 304.129 50.3392 303.058 50.4036 301.972L50.4881 300.619H54.3517ZM58.7527 299.412V295.85L69.2449 279.273H72.215V284.344H70.4039L63.3407 295.536V295.729H77.9863V299.412H58.7527ZM70.5488 304V298.325L70.5971 296.732V279.273H74.823V304H70.5488ZM81.8439 304V300.764L90.4284 292.349C91.2495 291.52 91.9337 290.783 92.481 290.139C93.0284 289.495 93.4389 288.871 93.7125 288.268C93.9862 287.664 94.123 287.02 94.123 286.336C94.123 285.555 93.946 284.887 93.5918 284.332C93.2376 283.768 92.7507 283.334 92.1309 283.028C91.5111 282.722 90.8068 282.569 90.0179 282.569C89.205 282.569 88.4926 282.738 87.8809 283.076C87.2691 283.406 86.7942 283.877 86.4561 284.489C86.1261 285.1 85.9611 285.829 85.9611 286.674H81.699C81.699 285.104 82.0572 283.74 82.7736 282.581C83.49 281.422 84.476 280.524 85.7317 279.888C86.9954 279.253 88.4443 278.935 90.0783 278.935C91.7364 278.935 93.1934 279.245 94.449 279.864C95.7047 280.484 96.6787 281.333 97.3709 282.412C98.0712 283.491 98.4213 284.722 98.4213 286.107C98.4213 287.032 98.2443 287.942 97.8901 288.835C97.5359 289.729 96.9121 290.719 96.0186 291.805C95.1332 292.892 93.8896 294.208 92.2878 295.754L88.0257 300.088V300.257H98.7956V304H81.8439ZM112.017 304.338C110.833 304.33 109.678 304.125 108.551 303.722C107.424 303.312 106.41 302.648 105.509 301.73C104.607 300.804 103.891 299.577 103.36 298.048C102.828 296.51 102.567 294.607 102.575 292.337C102.575 290.22 102.8 288.332 103.251 286.674C103.702 285.016 104.35 283.615 105.195 282.472C106.04 281.321 107.058 280.444 108.249 279.84C109.449 279.237 110.789 278.935 112.27 278.935C113.824 278.935 115.2 279.241 116.399 279.852C117.607 280.464 118.581 281.301 119.321 282.364C120.062 283.418 120.521 284.609 120.698 285.938H116.291C116.065 284.988 115.602 284.231 114.902 283.668C114.21 283.096 113.333 282.81 112.27 282.81C110.556 282.81 109.235 283.555 108.31 285.044C107.392 286.533 106.929 288.578 106.921 291.178H107.09C107.485 290.469 107.996 289.862 108.624 289.354C109.252 288.847 109.96 288.457 110.749 288.183C111.546 287.902 112.387 287.761 113.272 287.761C114.721 287.761 116.021 288.107 117.172 288.799C118.331 289.491 119.249 290.445 119.925 291.661C120.601 292.868 120.935 294.252 120.927 295.814C120.935 297.44 120.565 298.901 119.816 300.197C119.068 301.485 118.025 302.499 116.689 303.239C115.353 303.98 113.795 304.346 112.017 304.338ZM111.992 300.716C112.87 300.716 113.655 300.503 114.347 300.076C115.039 299.649 115.586 299.074 115.989 298.349C116.391 297.625 116.588 296.812 116.58 295.911C116.588 295.025 116.395 294.224 116.001 293.508C115.615 292.791 115.079 292.224 114.395 291.805C113.711 291.387 112.93 291.178 112.053 291.178C111.401 291.178 110.793 291.302 110.23 291.552C109.666 291.801 109.175 292.147 108.757 292.59C108.338 293.025 108.008 293.532 107.767 294.112C107.533 294.683 107.412 295.295 107.404 295.947C107.412 296.808 107.614 297.601 108.008 298.325C108.402 299.05 108.946 299.629 109.638 300.064C110.33 300.499 111.115 300.716 111.992 300.716ZM138.229 299.364V298.06C138.229 297.102 138.43 296.22 138.833 295.415C139.243 294.611 139.839 293.963 140.619 293.472C141.4 292.981 142.346 292.735 143.457 292.735C144.6 292.735 145.558 292.981 146.33 293.472C147.103 293.955 147.687 294.598 148.081 295.403C148.484 296.208 148.685 297.094 148.685 298.06V299.364C148.685 300.321 148.484 301.203 148.081 302.008C147.679 302.813 147.087 303.461 146.306 303.952C145.534 304.443 144.584 304.688 143.457 304.688C142.33 304.688 141.376 304.443 140.595 303.952C139.815 303.461 139.223 302.813 138.82 302.008C138.426 301.203 138.229 300.321 138.229 299.364ZM141.38 298.06V299.364C141.38 300 141.533 300.583 141.839 301.114C142.145 301.646 142.684 301.911 143.457 301.911C144.238 301.911 144.773 301.65 145.063 301.126C145.361 300.595 145.509 300.008 145.509 299.364V298.06C145.509 297.416 145.369 296.828 145.087 296.297C144.805 295.758 144.262 295.488 143.457 295.488C142.7 295.488 142.165 295.758 141.851 296.297C141.537 296.828 141.38 297.416 141.38 298.06ZM125.66 285.213V283.909C125.66 282.943 125.865 282.058 126.276 281.253C126.686 280.448 127.282 279.804 128.063 279.321C128.843 278.83 129.789 278.585 130.9 278.585C132.035 278.585 132.989 278.83 133.762 279.321C134.542 279.804 135.13 280.448 135.524 281.253C135.919 282.058 136.116 282.943 136.116 283.909V285.213C136.116 286.179 135.915 287.064 135.512 287.869C135.118 288.666 134.53 289.306 133.749 289.789C132.969 290.272 132.019 290.513 130.9 290.513C129.765 290.513 128.807 290.272 128.026 289.789C127.254 289.306 126.666 288.662 126.264 287.857C125.861 287.052 125.66 286.171 125.66 285.213ZM128.835 283.909V285.213C128.835 285.857 128.984 286.445 129.282 286.976C129.588 287.499 130.127 287.761 130.9 287.761C131.673 287.761 132.204 287.499 132.494 286.976C132.792 286.445 132.941 285.857 132.941 285.213V283.909C132.941 283.265 132.8 282.678 132.518 282.146C132.236 281.607 131.697 281.337 130.9 281.337C130.135 281.337 129.6 281.607 129.294 282.146C128.988 282.686 128.835 283.273 128.835 283.909ZM127.036 304L144.036 279.273H147.055L130.055 304H127.036Z" fill="white"/>
<path d="M734.668 294.643C734.628 293.178 734.821 291.958 735.248 290.984C735.683 290.01 736.286 289.282 737.059 288.799C737.84 288.308 738.733 288.062 739.739 288.062C740.52 288.062 741.253 288.228 741.937 288.558C742.621 288.879 743.406 289.431 744.291 290.212C744.798 290.646 745.217 290.972 745.547 291.19C745.877 291.407 746.255 291.516 746.682 291.516C747.294 291.516 747.789 291.282 748.167 290.815C748.553 290.34 748.734 289.624 748.71 288.666H752.212C752.252 290.123 752.051 291.339 751.608 292.312C751.173 293.286 750.566 294.019 749.785 294.51C749.004 294.993 748.123 295.234 747.141 295.234C746.336 295.234 745.587 295.065 744.895 294.727C744.203 294.389 743.426 293.846 742.565 293.097C742.033 292.63 741.607 292.296 741.285 292.095C740.971 291.894 740.605 291.793 740.186 291.793C739.598 291.793 739.107 292.015 738.713 292.457C738.327 292.892 738.142 293.621 738.158 294.643H734.668ZM765.864 304.338C764.069 304.338 762.475 304.036 761.083 303.433C759.698 302.829 758.612 302.004 757.823 300.957C757.042 299.903 756.656 298.708 756.664 297.371C756.656 296.333 756.881 295.379 757.34 294.51C757.799 293.641 758.419 292.916 759.199 292.337C759.988 291.749 760.866 291.375 761.831 291.214V291.045C760.56 290.763 759.529 290.115 758.741 289.101C757.96 288.079 757.573 286.899 757.581 285.563C757.573 284.291 757.928 283.156 758.644 282.158C759.36 281.16 760.342 280.375 761.59 279.804C762.838 279.224 764.262 278.935 765.864 278.935C767.45 278.935 768.863 279.224 770.102 279.804C771.35 280.375 772.332 281.16 773.048 282.158C773.773 283.156 774.135 284.291 774.135 285.563C774.135 286.899 773.736 288.079 772.939 289.101C772.151 290.115 771.132 290.763 769.885 291.045V291.214C770.851 291.375 771.72 291.749 772.493 292.337C773.273 292.916 773.893 293.641 774.352 294.51C774.819 295.379 775.052 296.333 775.052 297.371C775.052 298.708 774.658 299.903 773.869 300.957C773.08 302.004 771.994 302.829 770.609 303.433C769.233 304.036 767.651 304.338 765.864 304.338ZM765.864 300.885C766.79 300.885 767.595 300.728 768.279 300.414C768.963 300.092 769.494 299.641 769.873 299.062C770.251 298.482 770.444 297.814 770.452 297.058C770.444 296.269 770.239 295.572 769.836 294.969C769.442 294.357 768.899 293.878 768.206 293.532C767.522 293.186 766.742 293.013 765.864 293.013C764.979 293.013 764.19 293.186 763.498 293.532C762.805 293.878 762.258 294.357 761.856 294.969C761.461 295.572 761.268 296.269 761.276 297.058C761.268 297.814 761.453 298.482 761.831 299.062C762.21 299.633 762.741 300.08 763.425 300.402C764.117 300.724 764.93 300.885 765.864 300.885ZM765.864 289.62C766.621 289.62 767.289 289.467 767.868 289.161C768.456 288.855 768.919 288.429 769.257 287.881C769.595 287.334 769.768 286.702 769.776 285.986C769.768 285.277 769.599 284.658 769.269 284.126C768.939 283.587 768.48 283.173 767.893 282.883C767.305 282.585 766.629 282.436 765.864 282.436C765.083 282.436 764.395 282.585 763.8 282.883C763.212 283.173 762.753 283.587 762.423 284.126C762.101 284.658 761.944 285.277 761.952 285.986C761.944 286.702 762.105 287.334 762.435 287.881C762.773 288.421 763.236 288.847 763.824 289.161C764.419 289.467 765.099 289.62 765.864 289.62ZM778.575 299.412V295.85L789.067 279.273H792.037V284.344H790.226L783.163 295.536V295.729H797.809V299.412H778.575ZM790.371 304V298.325L790.419 296.732V279.273H794.645V304H790.371ZM810.806 304.471C808.818 304.471 807.112 303.968 805.687 302.962C804.27 301.947 803.179 300.487 802.415 298.579C801.658 296.663 801.28 294.357 801.28 291.661C801.288 288.964 801.67 286.67 802.427 284.778C803.192 282.879 804.282 281.43 805.699 280.432C807.124 279.434 808.826 278.935 810.806 278.935C812.786 278.935 814.489 279.434 815.913 280.432C817.338 281.43 818.429 282.879 819.185 284.778C819.95 286.678 820.332 288.972 820.332 291.661C820.332 294.365 819.95 296.675 819.185 298.591C818.429 300.499 817.338 301.955 815.913 302.962C814.497 303.968 812.794 304.471 810.806 304.471ZM810.806 300.692C812.352 300.692 813.571 299.931 814.464 298.41C815.366 296.88 815.817 294.631 815.817 291.661C815.817 289.696 815.612 288.046 815.201 286.71C814.79 285.374 814.211 284.368 813.462 283.692C812.714 283.008 811.828 282.665 810.806 282.665C809.269 282.665 808.053 283.43 807.16 284.96C806.266 286.481 805.816 288.714 805.808 291.661C805.799 293.633 805.997 295.291 806.399 296.635C806.81 297.979 807.389 298.993 808.138 299.678C808.886 300.354 809.776 300.692 810.806 300.692ZM834.486 278.114L826.517 307.719H822.69L830.659 278.114H834.486ZM837.275 304V285.455H841.453V288.606H841.67C842.056 287.543 842.696 286.714 843.59 286.119C844.483 285.515 845.55 285.213 846.789 285.213C848.045 285.213 849.103 285.519 849.965 286.131C850.834 286.734 851.446 287.559 851.8 288.606H851.993C852.404 287.576 853.096 286.754 854.07 286.143C855.052 285.523 856.215 285.213 857.559 285.213C859.266 285.213 860.658 285.752 861.737 286.831C862.815 287.91 863.355 289.483 863.355 291.552V304H858.972V292.228C858.972 291.077 858.666 290.236 858.054 289.705C857.442 289.165 856.694 288.896 855.808 288.896C854.754 288.896 853.929 289.226 853.333 289.886C852.746 290.538 852.452 291.387 852.452 292.433V304H848.166V292.047C848.166 291.089 847.876 290.324 847.296 289.753C846.725 289.181 845.976 288.896 845.051 288.896C844.423 288.896 843.851 289.057 843.336 289.379C842.821 289.692 842.41 290.139 842.105 290.719C841.799 291.29 841.646 291.958 841.646 292.723V304H837.275ZM867.789 304V285.455H872.159V304H867.789ZM869.986 282.822C869.294 282.822 868.698 282.593 868.199 282.134C867.7 281.667 867.451 281.108 867.451 280.456C867.451 279.796 867.7 279.237 868.199 278.778C868.698 278.311 869.294 278.077 869.986 278.077C870.686 278.077 871.282 278.311 871.773 278.778C872.272 279.237 872.522 279.796 872.522 280.456C872.522 281.108 872.272 281.667 871.773 282.134C871.282 282.593 870.686 282.822 869.986 282.822ZM881.025 293.134V304H876.654V285.455H880.831V288.606H881.049C881.475 287.567 882.156 286.742 883.089 286.131C884.031 285.519 885.194 285.213 886.579 285.213C887.858 285.213 888.973 285.487 889.923 286.034C890.881 286.581 891.622 287.374 892.145 288.413C892.676 289.451 892.938 290.711 892.93 292.192V304H888.559V292.868C888.559 291.628 888.237 290.658 887.593 289.958C886.957 289.258 886.076 288.908 884.949 288.908C884.184 288.908 883.504 289.077 882.908 289.415C882.321 289.745 881.858 290.224 881.52 290.852C881.19 291.479 881.025 292.24 881.025 293.134Z" fill="white"/>
<path d="M384.197 304V300.764L392.782 292.349C393.603 291.52 394.287 290.783 394.835 290.139C395.382 289.495 395.792 288.871 396.066 288.268C396.34 287.664 396.477 287.02 396.477 286.336C396.477 285.555 396.299 284.887 395.945 284.332C395.591 283.768 395.104 283.334 394.484 283.028C393.865 282.722 393.16 282.569 392.371 282.569C391.558 282.569 390.846 282.738 390.234 283.076C389.623 283.406 389.148 283.877 388.81 284.489C388.48 285.1 388.315 285.829 388.315 286.674H384.053C384.053 285.104 384.411 283.74 385.127 282.581C385.844 281.422 386.83 280.524 388.085 279.888C389.349 279.253 390.798 278.935 392.432 278.935C394.09 278.935 395.547 279.245 396.803 279.864C398.058 280.484 399.032 281.333 399.724 282.412C400.425 283.491 400.775 284.722 400.775 286.107C400.775 287.032 400.598 287.942 400.244 288.835C399.889 289.729 399.266 290.719 398.372 291.805C397.487 292.892 396.243 294.208 394.641 295.754L390.379 300.088V300.257H401.149V304H384.197ZM410.494 300.619L410.337 301.947C410.225 302.962 410.023 303.992 409.734 305.038C409.452 306.093 409.154 307.063 408.84 307.948C408.526 308.834 408.273 309.53 408.08 310.037H405.134C405.246 309.546 405.399 308.878 405.592 308.033C405.794 307.188 405.987 306.238 406.172 305.183C406.357 304.129 406.482 303.058 406.546 301.972L406.631 300.619H410.494ZM423.434 304.338C422.251 304.33 421.096 304.125 419.969 303.722C418.842 303.312 417.828 302.648 416.927 301.73C416.025 300.804 415.309 299.577 414.778 298.048C414.246 296.51 413.985 294.607 413.993 292.337C413.993 290.22 414.218 288.332 414.669 286.674C415.12 285.016 415.768 283.615 416.613 282.472C417.458 281.321 418.476 280.444 419.667 279.84C420.867 279.237 422.207 278.935 423.688 278.935C425.242 278.935 426.618 279.241 427.817 279.852C429.025 280.464 429.999 281.301 430.739 282.364C431.48 283.418 431.939 284.609 432.116 285.938H427.709C427.483 284.988 427.02 284.231 426.32 283.668C425.628 283.096 424.751 282.81 423.688 282.81C421.974 282.81 420.653 283.555 419.728 285.044C418.81 286.533 418.347 288.578 418.339 291.178H418.508C418.903 290.469 419.414 289.862 420.042 289.354C420.67 288.847 421.378 288.457 422.167 288.183C422.964 287.902 423.805 287.761 424.69 287.761C426.139 287.761 427.439 288.107 428.59 288.799C429.749 289.491 430.667 290.445 431.343 291.661C432.019 292.868 432.353 294.252 432.345 295.814C432.353 297.44 431.983 298.901 431.234 300.197C430.486 301.485 429.443 302.499 428.107 303.239C426.771 303.98 425.213 304.346 423.434 304.338ZM423.41 300.716C424.288 300.716 425.073 300.503 425.765 300.076C426.457 299.649 427.004 299.074 427.407 298.349C427.809 297.625 428.006 296.812 427.998 295.911C428.006 295.025 427.813 294.224 427.419 293.508C427.032 292.791 426.497 292.224 425.813 291.805C425.129 291.387 424.348 291.178 423.471 291.178C422.819 291.178 422.211 291.302 421.648 291.552C421.084 291.801 420.593 292.147 420.175 292.59C419.756 293.025 419.426 293.532 419.184 294.112C418.951 294.683 418.83 295.295 418.822 295.947C418.83 296.808 419.032 297.601 419.426 298.325C419.82 299.05 420.364 299.629 421.056 300.064C421.748 300.499 422.533 300.716 423.41 300.716ZM437.331 304L447.848 283.185V283.016H435.641V279.273H452.484V283.1L441.98 304H437.331ZM464.673 304.338C462.878 304.338 461.284 304.036 459.892 303.433C458.507 302.829 457.42 302.004 456.632 300.957C455.851 299.903 455.464 298.708 455.472 297.371C455.464 296.333 455.69 295.379 456.149 294.51C456.607 293.641 457.227 292.916 458.008 292.337C458.797 291.749 459.674 291.375 460.64 291.214V291.045C459.368 290.763 458.338 290.115 457.549 289.101C456.768 288.079 456.382 286.899 456.39 285.563C456.382 284.291 456.736 283.156 457.453 282.158C458.169 281.16 459.151 280.375 460.399 279.804C461.646 279.224 463.071 278.935 464.673 278.935C466.258 278.935 467.671 279.224 468.911 279.804C470.158 280.375 471.14 281.16 471.857 282.158C472.581 283.156 472.943 284.291 472.943 285.563C472.943 286.899 472.545 288.079 471.748 289.101C470.959 290.115 469.941 290.763 468.693 291.045V291.214C469.659 291.375 470.529 291.749 471.301 292.337C472.082 292.916 472.702 293.641 473.161 294.51C473.628 295.379 473.861 296.333 473.861 297.371C473.861 298.708 473.467 299.903 472.678 300.957C471.889 302.004 470.802 302.829 469.418 303.433C468.041 304.036 466.46 304.338 464.673 304.338ZM464.673 300.885C465.598 300.885 466.403 300.728 467.088 300.414C467.772 300.092 468.303 299.641 468.681 299.062C469.06 298.482 469.253 297.814 469.261 297.058C469.253 296.269 469.048 295.572 468.645 294.969C468.251 294.357 467.707 293.878 467.015 293.532C466.331 293.186 465.55 293.013 464.673 293.013C463.787 293.013 462.999 293.186 462.306 293.532C461.614 293.878 461.067 294.357 460.664 294.969C460.27 295.572 460.077 296.269 460.085 297.058C460.077 297.814 460.262 298.482 460.64 299.062C461.018 299.633 461.55 300.08 462.234 300.402C462.926 300.724 463.739 300.885 464.673 300.885ZM464.673 289.62C465.429 289.62 466.097 289.467 466.677 289.161C467.265 288.855 467.727 288.429 468.066 287.881C468.404 287.334 468.577 286.702 468.585 285.986C468.577 285.277 468.408 284.658 468.078 284.126C467.748 283.587 467.289 283.173 466.701 282.883C466.114 282.585 465.437 282.436 464.673 282.436C463.892 282.436 463.204 282.585 462.608 282.883C462.021 283.173 461.562 283.587 461.232 284.126C460.91 284.658 460.753 285.277 460.761 285.986C460.753 286.702 460.914 287.334 461.244 287.881C461.582 288.421 462.045 288.847 462.632 289.161C463.228 289.467 463.908 289.62 464.673 289.62Z" fill="white"/>
<rect x="39" y="2" width="47" height="11" rx="2" fill="#2B2B2D"/>
<rect x="106" y="2" width="67" height="11" rx="2" fill="#2B2B2D"/>
<rect x="2" width="16" height="16" rx="8" fill="#5C5C5C"/>
<g clip-path="url(#clip1_1_211)">
<path d="M27.6667 4L26.7267 4.94L29.78 8L26.7267 11.06L27.6667 12L31.6667 8L27.6667 4Z" fill="#5C5C5C"/>
</g>
<g clip-path="url(#clip2_1_211)">
<path d="M94.6667 4L93.7267 4.94L96.78 8L93.7267 11.06L94.6667 12L98.6667 8L94.6667 4Z" fill="#5C5C5C"/>
</g>
<path d="M995 461C995 458.791 993.209 457 991 457H820C817.791 457 816 458.791 816 461V470C816 472.209 817.791 474 820 474H991C993.209 474 995 472.209 995 470V461Z" fill="#4BB38B"/>
<path d="M901.884 461C901.884 458.791 900.093 457 897.884 457H820C817.791 457 816 458.791 816 461V470C816 472.209 817.791 474 820 474H897.884C900.093 474 901.884 472.209 901.884 470V461Z" fill="#4747EB"/>
<path d="M929.909 509C929.909 506.791 928.118 505 925.909 505H820C817.791 505 816 506.791 816 509V518C816 520.209 817.791 522 820 522H925.909C928.118 522 929.909 520.209 929.909 518V509Z" fill="#4BB38B"/>
<path d="M894.651 509C894.651 506.791 892.861 505 890.651 505H820C817.791 505 816 506.791 816 509V518C816 520.209 817.791 522 820 522H890.651C892.861 522 894.651 520.209 894.651 518V509Z" fill="#4747EB"/>
<path d="M961.551 557C961.551 554.791 959.76 553 957.551 553H820C817.791 553 816 554.791 816 557V566C816 568.209 817.791 570 820 570H957.551C959.76 570 961.551 568.209 961.551 566V557Z" fill="#4BB38B"/>
<path d="M865.722 557C865.722 554.791 863.931 553 861.722 553H820C817.791 553 816 554.791 816 557V566C816 568.209 817.791 570 820 570H861.722C863.931 570 865.722 568.209 865.722 566V557Z" fill="#4747EB"/>
<path d="M858.49 605C858.49 602.791 856.699 601 854.49 601H820C817.791 601 816 602.791 816 605V614C816 616.209 817.791 618 820 618H854.49C856.699 618 858.49 616.209 858.49 614V605Z" fill="#4BB38B"/>
<path d="M828.657 605C828.657 602.791 826.866 601 824.657 601H820C817.791 601 816 602.791 816 605V614C816 616.209 817.791 618 820 618H824.657C826.866 618 828.657 616.209 828.657 614V605Z" fill="#4747EB"/>
<path d="M901.884 653C901.884 650.791 900.093 649 897.884 649H820C817.791 649 816 650.791 816 653V662C816 664.209 817.791 666 820 666H897.884C900.093 666 901.884 664.209 901.884 662V653Z" fill="#4BB38B"/>
<path d="M888.323 653C888.323 650.791 886.532 649 884.323 649H820C817.791 649 816 650.791 816 653V662C816 664.209 817.791 666 820 666H884.323C886.532 666 888.323 664.209 888.323 662V653Z" fill="#4747EB"/>
<path d="M934.429 701C934.429 698.791 932.638 697 930.429 697H820C817.791 697 816 698.791 816 701V710C816 712.209 817.791 714 820 714H930.429C932.638 714 934.429 712.209 934.429 710V701Z" fill="#4BB38B"/>
<path d="M832.273 701C832.273 698.791 830.482 697 828.273 697H820C817.791 697 816 698.791 816 701V710C816 712.209 817.791 714 820 714H828.273C830.482 714 832.273 712.209 832.273 710V701Z" fill="#4747EB"/>
<rect x="732" y="458" width="47" height="14" rx="2" fill="#2B2B2D"/>
<rect x="794" y="463" width="7" height="2" fill="white"/>
<rect x="732" y="506" width="47" height="14" rx="2" fill="#2B2B2D"/>
<rect x="794" y="511" width="7" height="2" fill="white"/>
<rect x="732" y="554" width="47" height="14" rx="2" fill="#2B2B2D"/>
<rect x="794" y="559" width="7" height="2" fill="white"/>
<rect x="732" y="602" width="47" height="14" rx="2" fill="#2B2B2D"/>
<rect x="794" y="607" width="7" height="2" fill="white"/>
<rect x="732" y="650" width="47" height="14" rx="2" fill="#2B2B2D"/>
<rect x="794" y="655" width="7" height="2" fill="white"/>
<rect x="732" y="698" width="47" height="14" rx="2" fill="#2B2B2D"/>
<rect x="794" y="703" width="7" height="2" fill="white"/>
<rect x="28" y="508" width="7" height="2" fill="white"/>
<rect x="28" y="556" width="7" height="2" fill="white"/>
<rect x="28" y="604" width="7" height="2" fill="white"/>
<rect x="28" y="652" width="7" height="2" fill="white"/>
<rect x="28" y="700" width="7" height="2" fill="white"/>
<rect x="28" y="748" width="7" height="2" fill="white"/>
<rect y="383" width="1030" height="432" fill="url(#paint0_linear_1_211)"/>
</g>
<defs>
<filter id="filter0_d_1_211" x="54.9999" y="547" width="601" height="165.001" filterUnits="userSpaceOnUse" color-interpolation-filters="sRGB">
<feFlood flood-opacity="0" result="BackgroundImageFix"/>
<feColorMatrix in="SourceAlpha" type="matrix" values="0 0 0 0 0 0 0 0 0 0 0 0 0 0 0 0 0 0 127 0" result="hardAlpha"/>
<feOffset dy="4"/>
<feGaussianBlur stdDeviation="2"/>
<feColorMatrix type="matrix" values="0 0 0 0 0.376471 0 0 0 0 0.356863 0 0 0 0 1 0 0 0 0.17 0"/>
<feBlend mode="normal" in2="BackgroundImageFix" result="effect1_dropShadow_1_211"/>
<feBlend mode="normal" in="SourceGraphic" in2="effect1_dropShadow_1_211" result="shape"/>
</filter>
<filter id="filter1_d_1_211" x="174.709" y="583" width="21.542" height="22" filterUnits="userSpaceOnUse" color-interpolation-filters="sRGB">
<feFlood flood-opacity="0" result="BackgroundImageFix"/>
<feColorMatrix in="SourceAlpha" type="matrix" values="0 0 0 0 0 0 0 0 0 0 0 0 0 0 0 0 0 0 127 0" result="hardAlpha"/>
<feOffset dy="4"/>
<feGaussianBlur stdDeviation="2"/>
<feColorMatrix type="matrix" values="0 0 0 0 0.376471 0 0 0 0 0.356863 0 0 0 0 1 0 0 0 0.17 0"/>
<feBlend mode="normal" in2="BackgroundImageFix" result="effect1_dropShadow_1_211"/>
<feBlend mode="normal" in="SourceGraphic" in2="effect1_dropShadow_1_211" result="shape"/>
</filter>
<filter id="filter2_d_1_211" x="253.023" y="637" width="21.5416" height="22" filterUnits="userSpaceOnUse" color-interpolation-filters="sRGB">
<feFlood flood-opacity="0" result="BackgroundImageFix"/>
<feColorMatrix in="SourceAlpha" type="matrix" values="0 0 0 0 0 0 0 0 0 0 0 0 0 0 0 0 0 0 127 0" result="hardAlpha"/>
<feOffset dy="4"/>
<feGaussianBlur stdDeviation="2"/>
<feColorMatrix type="matrix" values="0 0 0 0 0.376471 0 0 0 0 0.356863 0 0 0 0 1 0 0 0 0.17 0"/>
<feBlend mode="normal" in2="BackgroundImageFix" result="effect1_dropShadow_1_211"/>
<feBlend mode="normal" in="SourceGraphic" in2="effect1_dropShadow_1_211" result="shape"/>
</filter>
<filter id="filter3_d_1_211" x="342.713" y="603" width="21.5417" height="22" filterUnits="userSpaceOnUse" color-interpolation-filters="sRGB">
<feFlood flood-opacity="0" result="BackgroundImageFix"/>
<feColorMatrix in="SourceAlpha" type="matrix" values="0 0 0 0 0 0 0 0 0 0 0 0 0 0 0 0 0 0 127 0" result="hardAlpha"/>
<feOffset dy="4"/>
<feGaussianBlur stdDeviation="2"/>
<feColorMatrix type="matrix" values="0 0 0 0 0.376471 0 0 0 0 0.356863 0 0 0 0 1 0 0 0 0.17 0"/>
<feBlend mode="normal" in2="BackgroundImageFix" result="effect1_dropShadow_1_211"/>
<feBlend mode="normal" in="SourceGraphic" in2="effect1_dropShadow_1_211" result="shape"/>
</filter>
<filter id="filter4_d_1_211" x="473.028" y="641" width="21.5417" height="22" filterUnits="userSpaceOnUse" color-interpolation-filters="sRGB">
<feFlood flood-opacity="0" result="BackgroundImageFix"/>
<feColorMatrix in="SourceAlpha" type="matrix" values="0 0 0 0 0 0 0 0 0 0 0 0 0 0 0 0 0 0 127 0" result="hardAlpha"/>
<feOffset dy="4"/>
<feGaussianBlur stdDeviation="2"/>
<feColorMatrix type="matrix" values="0 0 0 0 0.376471 0 0 0 0 0.356863 0 0 0 0 1 0 0 0 0.17 0"/>
<feBlend mode="normal" in2="BackgroundImageFix" result="effect1_dropShadow_1_211"/>
<feBlend mode="normal" in="SourceGraphic" in2="effect1_dropShadow_1_211" result="shape"/>
</filter>
<filter id="filter5_d_1_211" x="561.047" y="557" width="21.5416" height="22" filterUnits="userSpaceOnUse" color-interpolation-filters="sRGB">
<feFlood flood-opacity="0" result="BackgroundImageFix"/>
<feColorMatrix in="SourceAlpha" type="matrix" values="0 0 0 0 0 0 0 0 0 0 0 0 0 0 0 0 0 0 127 0" result="hardAlpha"/>
<feOffset dy="4"/>
<feGaussianBlur stdDeviation="2"/>
<feColorMatrix type="matrix" values="0 0 0 0 0.376471 0 0 0 0 0.356863 0 0 0 0 1 0 0 0 0.17 0"/>
<feBlend mode="normal" in2="BackgroundImageFix" result="effect1_dropShadow_1_211"/>
<feBlend mode="normal" in="SourceGraphic" in2="effect1_dropShadow_1_211" result="shape"/>
</filter>
<filter id="filter6_d_1_211" x="304" y="531" width="100.084" height="77.9493" filterUnits="userSpaceOnUse" color-interpolation-filters="sRGB">
<feFlood flood-opacity="0" result="BackgroundImageFix"/>
<feColorMatrix in="SourceAlpha" type="matrix" values="0 0 0 0 0 0 0 0 0 0 0 0 0 0 0 0 0 0 127 0" result="hardAlpha"/>
<feOffset dy="4"/>
<feGaussianBlur stdDeviation="3.5"/>
<feColorMatrix type="matrix" values="0 0 0 0 0.0117647 0 0 0 0 0.00784314 0 0 0 0 0.160784 0 0 0 0.07 0"/>
<feBlend mode="normal" in2="BackgroundImageFix" result="effect1_dropShadow_1_211"/>
<feBlend mode="normal" in="SourceGraphic" in2="effect1_dropShadow_1_211" result="shape"/>
</filter>
<linearGradient id="paint0_linear_1_211" x1="515" y1="383" x2="515" y2="728.6" gradientUnits="userSpaceOnUse">
<stop stop-color="#222128" stop-opacity="0"/>
<stop offset="1" stop-color="#222128"/>
</linearGradient>
<clipPath id="clip0_1_211">
<rect width="1030" height="812" fill="white"/>
</clipPath>
<clipPath id="clip1_1_211">
<rect width="16" height="16" fill="white" transform="translate(21)"/>
</clipPath>
<clipPath id="clip2_1_211">
<rect width="16" height="16" fill="white" transform="translate(88)"/>
</clipPath>
</defs>
</svg>
